<svg xmlns="http://www.w3.org/2000/svg" version="1.1" xmlns:xlink="http://www.w3.org/1999/xlink" xmlns:svgjs="http://svgjs.dev/svgjs" width="1500" height="1500" viewBox="0 0 1500 1500"><rect width="1500" height="1500" fill="#ffffff"></rect><g transform="matrix(0.6666666666666666,0,0,0.6666666666666666,249.39393939393938,438.58569500674764)"><svg viewBox="0 0 396 247" data-background-color="#ffffff" preserveAspectRatio="xMidYMid meet" height="935" width="1500" xmlns="http://www.w3.org/2000/svg" xmlns:xlink="http://www.w3.org/1999/xlink"><g id="tight-bounds" transform="matrix(1,0,0,1,0.2400000000000091,-0.09999999999999432)"><svg viewBox="0 0 395.52 247.2" height="247.2" width="395.52"><g><svg></svg></g><g><svg viewBox="0 0 395.52 247.2" height="247.2" width="395.52"><g transform="matrix(1,0,0,1,75.54432,71.43904435344731)"><svg viewBox="0 0 244.43135999999998 104.32191129310537" height="104.32191129310537" width="244.43135999999998"><g><svg viewBox="0 0 244.43135999999998 104.32191129310537" height="104.32191129310537" width="244.43135999999998"><g><svg viewBox="0 0 244.43135999999998 104.32191129310537" height="104.32191129310537" width="244.43135999999998"><g><svg viewBox="0 0 244.43135999999998 104.32191129310537" height="104.32191129310537" width="244.43135999999998"><g id="textblocktransform"><svg viewBox="0 0 244.43135999999998 104.32191129310537" height="104.32191129310537" width="244.43135999999998" id="textblock"><g><svg viewBox="0 0 244.43135999999998 56.266254076480884" height="56.266254076480884" width="244.43135999999998"><g transform="matrix(1,0,0,1,0,0)"><svg width="244.43135999999998" viewBox="1.9499999999999997 -35.8 200.03 46.05" height="56.266254076480884" data-palette-color="#636365"><path d="M34.2-23.85L34.2-23.85Q34.2-23.45 33.18-23.45 32.15-23.45 31.13-24.48 30.1-25.5 30.1-26.98 30.1-28.45 31-29.65L31-29.65Q32.9-32.25 37.35-33.35L37.35-33.35Q40.55-34.15 43.75-34.15L43.75-34.15 44.15-34.15Q44.6-34.15 46.6-34L46.6-34Q46.5-34.65 47.13-35.23 47.75-35.8 48.55-35.8L48.55-35.8Q50.05-35.8 50-33.65L50-33.65Q55.4-32.7 55.7-30.75L55.7-30.75Q55.75-30.3 55.75-30L55.75-30Q55.75-29 55.18-29 54.6-29 54.8-30.2L54.8-30.2Q53.55-32.05 49.85-32.8L49.85-32.8Q48.95-28.75 40.45-15.2L40.45-15.2Q34.8-6.3 27.3-0.3L27.3-0.3Q18.7 6.5 11.1 6.5L11.1 6.5Q6.45 6.5 4.2 4.15 1.95 1.8 1.95-1.07 1.95-3.95 3.05-6L3.05-6Q5.7-11.1 10.7-13.95L10.7-13.95Q14.4-16.1 17.55-16.1L17.55-16.1Q20.95-16.1 22.88-14.45 24.8-12.8 24.8-10.3L24.8-10.3Q24.8-7.6 22.8-5.4L22.8-5.4Q21.55-4 20.8-4L20.8-4Q20.6-4 20.6-4.17 20.6-4.35 20.75-4.65L20.75-4.65Q22.55-7.3 22.55-9.58 22.55-11.85 21.3-13.3L21.3-13.3Q19.85-14.85 17.38-14.85 14.9-14.85 11.85-12.85L11.85-12.85Q8.1-10.4 5.7-5.5L5.7-5.5Q4.45-3.05 4.45-0.43 4.45 2.2 6.4 3.83 8.35 5.45 11.65 5.45L11.65 5.45Q24.35 5.45 38.2-16.85L38.2-16.85Q46.5-30.15 46.7-33.15L46.7-33.15Q43.7-33.3 43.55-33.3L43.55-33.3Q41.2-33.3 37.52-32 33.85-30.7 32.75-28.8L32.75-28.8Q32.3-28.05 32.3-27.15 32.3-26.25 33.25-25.15 34.2-24.05 34.2-23.85ZM55.1 0.3L55.1 0.3Q54.85 0.35 54.02 0.35 53.2 0.35 52.37-0.3 51.55-0.95 51.55-1.98 51.55-3 51.92-4.25 52.3-5.5 52.45-6.15L52.45-6.15Q46.7 0.55 43.45 0.55L43.45 0.55Q41.4 0.55 41.2-2L41.2-2Q41.2-2.2 41.2-2.35L41.2-2.35Q41.2-4.5 43.8-8.15L43.8-8.15Q42.35-6.85 40.85-5.15L40.85-5.15Q40.65-4.95 40.35-4.95L40.35-4.95Q40.15-4.95 40.15-5.2 40.15-5.45 40.6-6.05L40.6-6.05 47.5-14.15Q48.8-15.65 50.15-15.65 51.5-15.65 51.5-14.75L51.5-14.75Q51.5-14.4 51.2-14.1L51.2-14.1Q49.2-12.25 46.17-7.95 43.15-3.65 43.15-1.6L43.15-1.6Q43.15-0.7 43.75-0.7L43.75-0.7Q45.85-0.7 49.85-4.85L49.85-4.85Q51.25-6.25 55.05-11.03 58.85-15.8 60.05-15.8L60.05-15.8Q61.85-15.8 61.85-14.4L61.85-14.4Q61.85-13.9 59.75-11.5L59.75-11.5Q56.9-8.05 55.4-5.88 53.9-3.7 53.9-2.35 53.9-1 54.65-1L54.65-1Q55-1 55.45-1.2L55.45-1.2Q58.9-2.7 63.7-8.2L63.7-8.2Q64-8.55 64.3-8.55 64.6-8.55 64.6-8.22 64.6-7.9 64.25-7.5L64.25-7.5Q62.1-5 59.2-2.48 56.3 0.05 55.1 0.3ZM73.15-1.8L71.55-0.75Q70.09 0.1 67.97 0.1 65.84 0.1 64.72-1.3 63.6-2.7 62.8-5.75L62.8-5.75Q61.9-4.85 61.55-4.85L61.55-4.85Q61.3-4.85 61.3-5.2 61.3-5.55 61.55-5.8L61.55-5.8Q63.2-7.85 67.15-11.7L67.15-11.7 73.45-17.6Q76.15-20.15 76.65-20.15L76.65-20.15Q78.25-20.15 78.25-18.95L78.25-18.95Q78.25-18.35 77.77-17.78 77.3-17.2 77.07-16.88 76.84-16.55 76.59-16.25L76.59-16.25Q75.7-14.7 74.77-9.85 73.84-5 73.34-3.1L73.34-3.1Q77.5-3.15 81.9-8.5L81.9-8.5Q82.4-9 82.65-9 82.9-9 82.9-8.68 82.9-8.35 82.45-7.8L82.45-7.8Q79.55-4.4 77.05-3.05L77.05-3.05Q75.55-2.3 73.15-1.8L73.15-1.8ZM64.8-6.3L64.8-6.3Q64.8-4.6 65.92-3.53 67.05-2.45 68.45-2.45 69.84-2.45 70.59-3L70.59-3Q71.59-3.55 72.57-7.6 73.55-11.65 73.75-14.75L73.75-14.75 73.95-16.45Q71.2-14.4 68.07-11.15 64.95-7.9 64.84-6.85L64.84-6.85Q64.8-6.55 64.8-6.3ZM93.34-16.1L93.34-16.1 100.54-16.2Q100.69-16.1 100.69-16.05L100.69-16.05Q100.69-15.6 94.47-14.8 88.24-14 87.74-13.85L87.74-13.85Q86.79-13 84.24-8.78 81.69-4.55 81.69-2.6L81.69-2.6Q81.69-0.75 84.24-0.75L84.24-0.75Q85.44-0.75 87.39-1.5 89.34-2.25 90.39-2.9L90.39-2.9Q93.19-4.65 96.39-8.05L96.39-8.05Q97.09-8.75 97.34-8.75L97.34-8.75Q97.49-8.75 97.49-8.45 97.49-8.15 96.74-7.25L96.74-7.25Q94.14-4.05 90.89-2.1L90.89-2.1Q86.99 0.3 83.44 0.3L83.44 0.3Q81.89 0.3 80.92-0.38 79.94-1.05 79.94-3.1 79.94-5.15 81.74-8.72 83.54-12.3 84.49-14.05L84.49-14.05Q83.79-13.9 83.29-13.9L83.29-13.9Q81.84-13.9 81.84-15.05L81.84-15.05Q81.84-15.9 83.04-16.25L83.04-16.25Q83.19-16.25 83.49-16.3L83.49-16.3 86.39-16.3Q87.29-17.45 88.44-18.95L88.44-18.95Q89.84-20.75 90.34-20.75 90.84-20.75 91.59-20.35 92.34-19.95 92.34-19.4 92.34-18.85 89.94-16.15L89.94-16.15Q91.24-16.1 93.34-16.1ZM133.64-9.45L133.64-9.45Q133.64-7.65 132.84-6.05L132.84-6.05Q131.14-2.45 126.34-0.05 121.54 2.35 116.34 2.35L116.34 2.35Q108.44 2.35 105.59-3.05L105.59-3.05Q100.44 1.25 98.24 1.25L98.24 1.25Q97.84 1.25 97.54 1.1L97.54 1.1Q96.04 0.3 96.04-2.35 96.04-5 98.24-8.85 100.44-12.7 102.09-13.4L102.09-13.4Q102.84-13.65 103.24-13.65L103.24-13.65Q104.69-13.65 105.44-11.25L105.44-11.25 106.94-6.45Q108.39-8 110.89-11.4L110.89-11.4 115.34-17.4Q123.54-28.05 126.09-29.05L126.09-29.05Q126.99-29.4 127.94-29.4 128.89-29.4 129.52-29 130.14-28.6 130.14-28L130.14-28Q130.14-27.1 128.69-26.95L128.69-26.95Q127.19-26.1 122.97-21.98 118.74-17.85 117.94-16.75L117.94-16.75Q112.34-8.95 107.59-4.75L107.59-4.75Q110.64 1.3 116.74 1.3L116.74 1.3Q120.44 1.3 124.09-1.03 127.74-3.35 129.54-6.75L129.54-6.75Q130.34-8.2 130.34-10 130.34-11.8 128.92-13.43 127.49-15.05 125.34-15.8L125.34-15.8Q124.34-15.95 122.14-16.23 119.94-16.5 119.94-17.15L119.94-17.15Q119.94-17.4 120.14-17.6L120.14-17.6Q120.74-18.3 121.69-18.3L121.69-18.3Q122.24-18.3 122.77-18.1 123.29-17.9 123.59-17.8 123.89-17.7 124.29-17.55L124.29-17.55Q125.39-17.45 126.19-17.45L126.19-17.45Q129.49-17.45 132.19-18.5L132.19-18.5Q135.64-19.85 136.59-22.55L136.59-22.55Q137.19-24.3 137.19-25.7L137.19-25.7Q137.19-29.15 133.84-30.85L133.84-30.85Q130.94-32.35 125.89-32.35L125.89-32.35Q117.94-32.35 111.64-29.35L111.64-29.35Q108.44-27.85 105.57-24.9 102.69-21.95 102.69-19.85L102.69-19.85Q102.69-18.4 103.44-17.45L103.44-17.45Q103.74-17.05 104.49-16.45L104.49-16.45Q104.74-16.3 104.19-16.3L104.19-16.3Q101.09-17 101.09-20.45 101.09-23.9 104.59-26.95L104.59-26.95Q107.19-29.2 110.44-30.6L110.44-30.6Q117.19-33.5 125.79-33.5L125.79-33.5Q131.94-33.5 135.59-31.7L135.59-31.7Q139.84-29.7 139.84-25.65L139.84-25.65Q139.84-24.05 139.19-22.4L139.19-22.4Q138.14-19.4 133.74-17.85L133.74-17.85Q130.44-16.7 126.64-16.65L126.64-16.65Q129.59-16.5 131.62-14.48 133.64-12.45 133.64-9.45ZM101.69-11.3L101.69-11.3Q101.64-11.3 101.44-11.2L101.44-11.2Q97.74-5.85 97.74-2.6L97.74-2.6Q97.74-1.25 98.39-0.15L98.39-0.15Q98.54 0.1 98.89 0.1L98.89 0.1Q100.49 0.1 105.04-4.45L105.04-4.45 104.89-4.65Q102.89-11.3 101.69-11.3ZM138.04-2.5Q138.04-1 139.69-1 141.34-1 143.94-2.75 146.54-4.5 148.99-7.5L148.99-7.5Q149.59-8.3 149.94-8.3 150.29-8.3 150.29-8L150.29-8Q150.29-7.7 148.24-5.4L148.24-5.4Q143.24 0.1 139.89 0.1L139.89 0.1Q138.24 0.1 137.09-0.68 135.94-1.45 135.94-3.08 135.94-4.7 136.79-6.85L136.79-6.85Q138.24-10.25 141.44-15.4L141.44-15.4Q147.29-24.9 149.74-24.9L149.74-24.9Q150.24-24.9 150.76-24.53 151.29-24.15 151.34-23.7L151.34-23.7Q150.19-22.15 146.91-17.75 143.64-13.35 142.39-11.43 141.14-9.5 140.51-8.55 139.89-7.6 139.59-7.08 139.29-6.55 138.89-5.7L138.89-5.7Q138.04-4 138.04-2.5ZM162.24 0.3L162.24 0.3Q161.99 0.35 161.16 0.35 160.34 0.35 159.51-0.3 158.69-0.95 158.69-1.98 158.69-3 159.06-4.25 159.44-5.5 159.59-6.15L159.59-6.15Q153.84 0.55 150.59 0.55L150.59 0.55Q148.54 0.55 148.34-2L148.34-2Q148.34-2.2 148.34-2.35L148.34-2.35Q148.34-4.5 150.94-8.15L150.94-8.15Q149.49-6.85 147.99-5.15L147.99-5.15Q147.79-4.95 147.49-4.95L147.49-4.95Q147.29-4.95 147.29-5.2 147.29-5.45 147.74-6.05L147.74-6.05 154.64-14.15Q155.94-15.65 157.29-15.65 158.64-15.65 158.64-14.75L158.64-14.75Q158.64-14.4 158.34-14.1L158.34-14.1Q156.34-12.25 153.31-7.95 150.29-3.65 150.29-1.6L150.29-1.6Q150.29-0.7 150.89-0.7L150.89-0.7Q152.99-0.7 156.99-4.85L156.99-4.85Q158.39-6.25 162.19-11.03 165.99-15.8 167.19-15.8L167.19-15.8Q168.99-15.8 168.99-14.4L168.99-14.4Q168.99-13.9 166.89-11.5L166.89-11.5Q164.04-8.05 162.54-5.88 161.04-3.7 161.04-2.35 161.04-1 161.79-1L161.79-1Q162.14-1 162.59-1.2L162.59-1.2Q166.04-2.7 170.84-8.2L170.84-8.2Q171.14-8.55 171.44-8.55 171.74-8.55 171.74-8.22 171.74-7.9 171.39-7.5L171.39-7.5Q169.24-5 166.34-2.48 163.44 0.05 162.24 0.3ZM189.88-24.45L189.88-24.45Q189.88-22.9 188.98-22.9L188.98-22.9Q188.73-22.9 188.48-23.3L188.48-23.3Q188.03-24.1 186.98-24.1L186.98-24.1Q184.68-24.1 182.68-20.8L182.68-20.8Q182.28-20.15 180.18-16.1L180.18-16.1 180.78-16.1Q186.23-16.1 188.03-16.25L188.03-16.25Q188.23-16.2 188.23-16.05L188.23-16.05Q188.23-15.65 184.68-14.95L184.68-14.95Q181.33-14.4 179.18-14L179.18-14Q177.63-10.8 175.43-6.4L175.43-6.4Q170.93 2 169.48 4.05L169.48 4.05Q165.13 10.25 160.98 10.25L160.98 10.25Q159.53 10.25 158.46 9.03 157.38 7.8 157.33 6.3L157.33 6.3Q157.48 5.7 157.78 5.7L157.78 5.7Q157.93 5.7 157.98 6.05L157.98 6.05Q158.28 7.35 158.98 8.05 159.68 8.75 160.43 8.75L160.43 8.75Q164.68 8.75 168.18 3.5L168.18 3.5Q170.18 0.5 173.63-7.3L173.63-7.3 176.33-13.8Q171.33-13.85 171.33-15L171.33-15Q171.33-15.5 171.81-15.85 172.28-16.2 172.63-16.2L172.63-16.2 177.33-16.1Q182.23-27 186.33-27L186.33-27Q187.88-27 189.48-25.5L189.48-25.5Q189.88-25.1 189.88-24.45ZM201.98-24.45L201.98-24.45Q201.98-22.9 201.08-22.9L201.08-22.9Q200.83-22.9 200.58-23.3L200.58-23.3Q200.13-24.1 199.08-24.1L199.08-24.1Q196.78-24.1 194.78-20.8L194.78-20.8Q194.38-20.15 192.28-16.1L192.28-16.1 192.88-16.1Q198.33-16.1 200.13-16.25L200.13-16.25Q200.33-16.2 200.33-16.05L200.33-16.05Q200.33-15.65 196.78-14.95L196.78-14.95Q193.43-14.4 191.28-14L191.28-14Q189.73-10.8 187.53-6.4L187.53-6.4Q183.03 2 181.58 4.05L181.58 4.05Q177.23 10.25 173.08 10.25L173.08 10.25Q171.63 10.25 170.56 9.03 169.48 7.8 169.43 6.3L169.43 6.3Q169.58 5.7 169.88 5.7L169.88 5.7Q170.03 5.7 170.08 6.05L170.08 6.05Q170.38 7.35 171.08 8.05 171.78 8.75 172.53 8.75L172.53 8.75Q176.78 8.75 180.28 3.5L180.28 3.5Q182.28 0.5 185.73-7.3L185.73-7.3 188.43-13.8Q183.43-13.85 183.43-15L183.43-15Q183.43-15.5 183.91-15.85 184.38-16.2 184.73-16.2L184.73-16.2 189.43-16.1Q194.33-27 198.43-27L198.43-27Q199.98-27 201.58-25.5L201.58-25.5Q201.98-25.1 201.98-24.45Z" opacity="1" transform="matrix(1,0,0,1,0,0)" fill="#000000" class="wordmark-text-0" data-fill-palette-color="primary" id="text-0"></path></svg></g></svg></g><g transform="matrix(1,0,0,1,0,69.54936627384018)"><svg viewBox="0 0 244.43135999999998 34.77254501926519" height="34.77254501926519" width="244.43135999999998"><g transform="matrix(1,0,0,1,0,0)"><svg width="244.43135999999998" viewBox="-2.85 -36.8 386.97 55.05" height="34.77254501926519" data-palette-color="#2f8bfc"><path d="M35.55-4.2L35.55-4.2Q35.55-2.25 32.9-1.6L32.9-1.6Q32.75-1.6 32.75-1.8 32.75-2 33.1-2.25L33.1-2.25Q34.1-3 34.1-3.9L34.1-3.9Q34.1-5.65 31.3-6.45L31.3-6.45Q27.6-1.9 21.03 1.1 14.45 4.1 9.35 4.1 4.25 4.1 4.25 2L4.25 2Q4.25 0.25 7.73-2.18 11.2-4.6 16.68-6.43 22.15-8.25 27-8.25L27-8.25Q29.4-8.25 31.1-7.9L31.1-7.9Q32.65-10.65 32.65-13.65L32.65-13.65Q32.65-15.4 31.1-16.57 29.55-17.75 26.95-17.75 24.35-17.75 22-16.7L22-16.7Q21.5-16.35 21.2-16.35L21.2-16.35Q20.65-16.35 20.65-16.63 20.65-16.9 21.4-17.3L21.4-17.3Q22.5-17.65 25.63-20 28.75-22.35 31.73-25.73 34.7-29.1 34.7-31.4L34.7-31.4Q34.7-35.15 26.6-35.15L26.6-35.15Q20.9-35.15 14.48-32.83 8.05-30.5 3.65-26.78-0.75-23.05-0.75-19.5L-0.75-19.5Q-0.75-17.6 1.6-17.6L1.6-17.6Q4.95-17.6 8.2-19.28 11.45-20.95 16.7-25.35L16.7-25.35Q17.35-26.1 17.6-26.1L17.6-26.1Q18.15-26.1 18.15-25.75L18.15-25.75Q18.15-25.65 17.8-25.05L17.8-25.05Q16.5-23.75 14.15-21.9 11.8-20.05 9.8-18.8 7.8-17.55 5.28-16.55 2.75-15.55 0.7-15.55L0.7-15.55Q-2.85-15.55-2.85-18.7L-2.85-18.7Q-2.85-22.8 2.5-27.13 7.85-31.45 15.08-34.13 22.3-36.8 28-36.8L28-36.8Q37.05-36.8 37.05-32.35L37.05-32.35Q37.05-29.1 32.73-24.68 28.4-20.25 24.95-18.6L24.95-18.6Q26.5-18.9 27.85-18.9L27.85-18.9Q31-18.9 32.7-17.7 34.4-16.5 34.4-14.45L34.4-14.45Q34.4-10.95 32.15-7.6L32.15-7.6Q35.55-6.6 35.55-4.2ZM26.45-7.05L26.45-7.05Q22.65-7.05 17.85-5.45 13.05-3.85 9.83-1.8 6.6 0.25 6.6 1.53 6.6 2.8 9.68 2.8 12.75 2.8 16.43 1.83 20.1 0.85 24.13-1.43 28.15-3.7 30.3-6.7L30.3-6.7Q28.4-7.05 26.45-7.05ZM26.75-32.15L27-31.95Q27-31.8 21.18-21.75 15.35-11.7 12.6-7.1L12.6-7.1Q12.3-6.45 11.5-6.1 10.7-5.75 10.28-5.75 9.85-5.75 9.85-5.98 9.85-6.2 13.55-12.43 17.25-18.65 20.93-24.8 24.6-30.95 24.5-31L24.5-31Q24.8-31.5 25.5-31.75L25.5-31.75 26.75-32.15ZM111.44 0.8L111.44 0.8Q109.19 0.8 109.19-1.65L109.19-1.65Q109.19-4.9 112.72-10.98 116.24-17.05 120.77-21.88 125.29-26.7 127.89-26.7L127.89-26.7Q128.84-26.7 128.84-25.35L128.84-25.35Q128.84-23.25 125.32-18.5 121.79-13.75 117.74-9.6 113.69-5.45 111.49-3.9L111.49-3.9Q111.39-3.1 111.39-2.83 111.39-2.55 111.44-2.2 111.49-1.85 111.84-1.3 112.19-0.75 113.02-0.75 113.84-0.75 115.94-1.73 118.04-2.7 119.64-3.7L119.64-3.7 121.24-4.7Q121.29-4.6 121.29-4.3 121.29-4 120.84-3.8L120.84-3.8Q114.09 0.8 111.44 0.8ZM127.04-24.15L127.04-24.15Q126.99-25.25 126.39-25.25L126.39-25.25Q124.84-25.25 121.69-21.75 118.54-18.25 115.59-13.38 112.64-8.5 111.74-5L111.74-5Q113.84-6.7 117.14-10 120.44-13.3 123.64-17.55 126.84-21.8 127.04-24.15ZM199.54-0.5L199.54-0.5Q199.54-1.05 200.36-2.35 201.19-3.65 201.46-4 201.74-4.35 202.29-5.1L202.29-5.1Q196.34 0.3 194.09 0.3L194.09 0.3Q192.84 0.3 192.84-0.75L192.84-0.75Q192.84-2.25 197.89-9.2L197.89-9.2Q198.14-9.6 198.54-9.6L198.54-9.6Q199.69-9.25 199.69-9.1 199.69-8.95 199.39-8.5L199.39-8.5Q195.09-2.7 195.09-1.98 195.09-1.25 195.59-1.25L195.59-1.25Q196.99-1.25 200.56-4.48 204.14-7.7 205.74-9.8L205.74-9.8Q205.94-10.15 206.39-10.15L206.39-10.15Q207.39-9.95 207.39-9.75L207.39-9.75Q206.84-8.95 205.89-7.65 204.94-6.35 204.34-5.53 203.74-4.7 203.09-3.75L203.09-3.75Q201.84-2.05 201.59-1.25L201.59-1.25Q201.59-0.75 202.41-0.75 203.24-0.75 205.34-1.73 207.44-2.7 209.04-3.7L209.04-3.7 210.64-4.7Q210.69-4.6 210.69-4.3 210.69-4 210.24-3.8L210.24-3.8Q203.49 0.8 200.84 0.8L200.84 0.8Q199.54 0.8 199.54-0.5ZM282.63-1.3L282.63-1.3Q284.88-1.25 285.78 0.05L285.78 0.05Q290.48-2.4 294.13-4.75L294.13-4.75Q294.18-4.6 294.18-4.3 294.18-4 293.73-3.8L293.73-3.8Q291.98-2.6 290.13-1.5 288.28-0.4 286.13 0.8L286.13 0.8Q286.28 1.3 286.28 2L286.28 2Q286.28 4.65 283.95 8.58 281.63 12.5 278.5 15.38 275.38 18.25 273.28 18.25L273.28 18.25Q272.33 18.25 272.33 16.75 272.33 15.25 277.58 5.1L277.58 5.1Q276.48 5.5 275.83 5.5L275.83 5.5Q274.03 5.5 274.03 4.45L274.03 4.45Q274.03 3.2 276.2 1.4 278.38-0.4 280.83-1.05L280.83-1.05Q286.43-11.2 291.68-18.48 296.93-25.75 299.68-25.75L299.68-25.75Q300.78-25.75 300.78-24.65L300.78-24.65Q300.78-23 299.55-20.7 298.33-18.4 296.53-16.18 294.73-13.95 292.5-11.6 290.28-9.25 288.48-7.58 286.68-5.9 285.28-4.63 283.88-3.35 283.83-3.3L283.83-3.3Q283.58-2.9 283.15-2.18 282.73-1.45 282.63-1.3ZM274.43 15.85L274.43 15.85Q274.43 16.4 274.78 16.4L274.78 16.4Q276.18 16.4 278.6 13.83 281.03 11.25 282.95 7.8 284.88 4.35 284.88 2.1L284.88 2.1Q284.88 1.7 284.83 1.5L284.83 1.5Q282.03 3.1 279.48 4.3L279.48 4.3Q274.43 13.55 274.43 15.85ZM298.98-23.4L298.98-23.4Q298.98-24 298.43-24L298.43-24Q297.48-23.95 293.58-18.43 289.68-12.9 285.03-5.3L285.03-5.3Q288.13-8.05 291.78-12.05L291.78-12.05Q298.98-19.85 298.98-23.4ZM277.38 1.33Q276.08 2.3 276.08 3 276.08 3.7 277.38 3.7L277.38 3.7Q277.58 3.7 278.38 3.5L278.38 3.5 280.33-0.1Q278.68 0.35 277.38 1.33ZM280.33 2.7L280.33 2.7Q281.58 2.2 284.58 0.65L284.58 0.65Q283.93-0.4 282.23-0.4L282.23-0.4 282.13-0.4Q281.78 0.2 281.18 1.25 280.58 2.3 280.33 2.7ZM365.97-1.3L365.97-1.3Q368.22-1.25 369.12 0.05L369.12 0.05Q373.82-2.4 377.47-4.75L377.47-4.75Q377.52-4.6 377.52-4.3 377.52-4 377.07-3.8L377.07-3.8Q375.32-2.6 373.47-1.5 371.62-0.4 369.47 0.8L369.47 0.8Q369.62 1.3 369.62 2L369.62 2Q369.62 4.65 367.3 8.58 364.97 12.5 361.85 15.38 358.72 18.25 356.62 18.25L356.62 18.25Q355.67 18.25 355.67 16.75 355.67 15.25 360.92 5.1L360.92 5.1Q359.82 5.5 359.17 5.5L359.17 5.5Q357.37 5.5 357.37 4.45L357.37 4.45Q357.37 3.2 359.55 1.4 361.72-0.4 364.17-1.05L364.17-1.05Q369.77-11.2 375.02-18.48 380.27-25.75 383.02-25.75L383.02-25.75Q384.12-25.75 384.12-24.65L384.12-24.65Q384.12-23 382.9-20.7 381.67-18.4 379.87-16.18 378.07-13.95 375.85-11.6 373.62-9.25 371.82-7.58 370.02-5.9 368.62-4.63 367.22-3.35 367.17-3.3L367.17-3.3Q366.92-2.9 366.5-2.18 366.07-1.45 365.97-1.3ZM357.77 15.85L357.77 15.85Q357.77 16.4 358.12 16.4L358.12 16.4Q359.52 16.4 361.95 13.83 364.37 11.25 366.3 7.8 368.22 4.35 368.22 2.1L368.22 2.1Q368.22 1.7 368.17 1.5L368.17 1.5Q365.37 3.1 362.82 4.3L362.82 4.3Q357.77 13.55 357.77 15.85ZM382.32-23.4L382.32-23.4Q382.32-24 381.77-24L381.77-24Q380.82-23.95 376.92-18.43 373.02-12.9 368.37-5.3L368.37-5.3Q371.47-8.05 375.12-12.05L375.12-12.05Q382.32-19.85 382.32-23.4ZM360.72 1.33Q359.42 2.3 359.42 3 359.42 3.7 360.72 3.7L360.72 3.7Q360.92 3.7 361.72 3.5L361.72 3.5 363.67-0.1Q362.02 0.35 360.72 1.33ZM363.67 2.7L363.67 2.7Q364.92 2.2 367.92 0.65L367.92 0.65Q367.27-0.4 365.57-0.4L365.57-0.4 365.47-0.4Q365.12 0.2 364.52 1.25 363.92 2.3 363.67 2.7Z" opacity="1" transform="matrix(1,0,0,1,0,0)" fill="#000000" class="slogan-text-1" data-fill-palette-color="secondary" id="text-1"></path></svg></g></svg></g></svg></g></svg></g></svg></g></svg></g></svg></g><g><path d="M0 123.6c0-68.262 55.338-123.6 123.6-123.6 46.976 0 87.831 26.207 108.743 64.797l-2.895 0c-20.675-37.137-60.328-62.26-105.848-62.26-66.861 0-121.063 54.202-121.063 121.063 0 66.861 54.202 121.063 121.063 121.063 45.52 0 85.173-25.123 105.848-62.26h2.895c-20.912 38.591-61.767 64.797-108.743 64.797-68.262 0-123.6-55.338-123.6-123.6z" fill="#000000" stroke="transparent" data-fill-palette-color="tertiary"></path></g></svg></g><defs></defs></svg><rect width="395.52" height="247.2" fill="none" stroke="none" visibility="hidden"></rect></g></svg></g></svg>